<?xml version="1.0" encoding="utf-8"?>
<!-- Svg Vector Icons : http://www.onlinewebfonts.com/icon -->
<!DOCTYPE svg PUBLIC "-//W3C//DTD SVG 1.1//EN" "http://www.w3.org/Graphics/SVG/1.1/DTD/svg11.dtd">
<svg version="1.1" xmlns="http://www.w3.org/2000/svg" xmlns:xlink="http://www.w3.org/1999/xlink" x="0px" y="0px" viewBox="0 0 1000 1000" enable-background="new 0 0 1000 1000" xml:space="preserve">
<metadata> Svg Vector Icons : http://www.onlinewebfonts.com/icon </metadata>
<g><g transform="translate(0.000000,512.000000) scale(0.100000,-0.100000)"><path d="M4887.2,4715.7v-306.3l-109.1-11.5c-562.7-65.1-1248-302.4-1738-602.9c-549.3-336.9-1100.6-888.1-1433.6-1437.5c-292.9-486.2-509.1-1096.8-587.6-1667.2l-23-168.4H701.2H408.3V120v-402h294.8h294.8l11.5-109.1c28.7-235.4,112.9-601,197.2-855.6c292.8-882.4,897.7-1676.7,1674.8-2199.3l147.4-99.5l1.9-616.3V-4780h402h401.9v423c0,350.3,3.8,421.1,26.8,413.4c199.1-76.6,658.4-181.8,939.8-214.4c1803.1-210.5,3558.2,754.2,4354.5,2392.6c273.7,558.9,407.7,1096.7,432.6,1722.7c55.5,1351.3-545.5,2668.2-1604,3518c-480.4,386.6-1075.7,681.4-1661.4,823c-158.9,40.2-557,109.1-620.2,109.1c-5.7,0-11.5,137.8-11.5,306.2V5020h-402h-402V4715.7z M4883.4,3163.4v-689.1H3957h-926.4v-411.5v-411.5h2258.6h2258.6v411.5v411.5h-928.3h-928.3V3171v698.6l72.7-9.6c1261.4-174.2,2319.8-926.4,2886.4-2048c388.6-769.4,497.7-1605.9,323.5-2461.5c-266.1-1305.4-1236.5-2390.7-2509.3-2807.9c-807.7-264.1-1672.9-252.6-2461.5,36.4l-168.4,61.3v581.9v581.9h1445.1h1445.1v-268v-268h411.5h411.5v669.9v669.9H5289.2H3030.6l-3.8-746.5L3021-2887l-134,109.1C1859.2-1939.5,1348.1-561.4,1574,751.6C1813.2,2129.8,2789.4,3264.8,4112,3697.4c264.1,86.1,712,181.8,758,160.8C4877.6,3854.3,4883.4,3542.3,4883.4,3163.4z"/><path d="M2571.2,120v-402h708.2h708.2v402v402h-708.2h-708.2V120z"/><path d="M4619.3,120v-402h698.6h698.6v402v402h-698.6h-698.6V120z"/><path d="M6667.3,120v-402h698.6h698.6v402v402h-698.6h-698.6V120z"/></g></g>
</svg>